<mxfile host="Electron" modified="2023-11-05T05:19:36.927Z" agent="Mozilla/5.0 (Windows NT 10.0; Win64; x64) AppleWebKit/537.36 (KHTML, like Gecko) draw.io/22.0.3 Chrome/114.0.5735.289 Electron/25.8.4 Safari/537.36" etag="rzLrNOVZswCezTpjJrYC" version="22.0.3" type="device">
  <diagram name="Seite-1" id="85YtPa8ZVsmd_2dSZIvZ">
    <mxGraphModel dx="780" dy="504" grid="1" gridSize="1" guides="1" tooltips="1" connect="1" arrows="1" fold="1" page="1" pageScale="1" pageWidth="827" pageHeight="1169" math="0" shadow="0">
      <root>
        <mxCell id="0" />
        <mxCell id="1" parent="0" />
        <mxCell id="jjB0FghLF4md372GnH0h-1" value="" style="shape=image;aspect=fixed;image=data:image/PNG,iVBORw0KGgoAAAANSUhEUgAAA1EAAAJICAYAAACAK25NAAAAAXNSR0IArs4c6QAAAARnQU1BAACxjwv8YQUAAAAJcEhZcwAADsMAAA7DAcdvqGQAAGUBSURBVHhe7Z1Lj2XnVb//nyB2O45vpG0n7Vt868R3O3EcIBITxAghgRDi0nbHsTt2ooSQi5OQgATpNkEBCTFhZsc2X6G7HQkJJiB3MciAjNxCKNNCzOufX1Wt9qpV692Xc/Y+5917P4/06Jza51LlTlx9Hr9rv/v/7QEAAAAAAEBniCgAAAAAAIAeEFEAAAAAAAA9IKIAAAAAAAB6QEQBAAAAAAD0gIgCAAAAAADoAREFAAAAAADQAyIKAAAAAACgB0QUAAAAAABAD4goAAAAAACAHhBRAAAAAAAAPSCiAAAAAAAAekBEAQAAAAAA9ICIAgAAAAAA6AERBQAAAAAA0AMiCgAAAAAAoAdEFAAAAAAAQA+IKAAAAAAAgB4QUQAAAAAAAD0gogAAAAAAAHpARAEAAAAAAPSAiAIAAAAAAOgBEQUAAAAAANADIgoAAAAAAKAHRBQAAAAAAEAPiCgAAAAAAIAeEFEAAAAAAAA9IKIAAAAAAAB6QEQBAAAAAAD0gIgCAAAAAADoAREFAAAAAADQAyIKAAAAAACgB0QUAAAAAABAD4goAAAAAACAHhBRAAAAAAAAPSCiAAAAAAAAekBEAQAAAAAA9ICIAgAAAAAA6AERBQAAAAAA0AMiCgAAAAAAoAdEFAAAAAAAQA+IKAAAAAAAgB4QUQAAAAAAAD0gogAAAAAAAHpARAEAAAAAAPSAiAIAAAAAAOgBEQUAAAAAANADIgoAAAAAAKAHRBQAAAAAAEAPiCgAAAAAAIAeEFEAAAAAAAA9IKIAAAAAAAB6QEQBAAAAAAD0gIgCAAAAAADoAREFAAAAAADQAyIKAAAAAACgB0QUAAAAAABAD4goAAAAAACAHhBRAAAAAAAAPSCiAAAAAAAAekBEAQAAAAAA9ICIAgAAAAAA6AERBQAAAAAAk2J3d3fv/fff33vvvff2Ll68uPfGG2/s/fVf//Xehz70ocNnjAsRBQAAAAAAVVGKpDNnzuyHUpObgIgCAAAAAICNYpF05cqV/UiS58+f7xRJbW4CIgoAAAAAAAZFkSRjJL3wwgt7N998c9ETJ06kYdTHTUBEAQAAAABAL0qRJLM46ioRBQAAAAAAk8QiSSN3Q0ZSm0QUAEBP9Iv60qVLh18BAADAWGwrktokogAAevKFL3xh79SpU/u3+qUOAAAAqxMj6c0339x6JLVJRAEA9ODChQv7AeX9yU9+sv8XAAAAABxnipHUJhEFANAR/QUQA8rUqhQjfgAAsEQskrR5g/4u1H9c1H90/MQnPnHNu+++O42RqUpEAQB0xMb4miSmAABgbpQi6cUXXzwSSiXnFlCSiAIA6EA2xtekYooRPwAAmAIxkmSfSGpyjgEliSgAgBaaxviaZFUKAABqQJEkx4ikJu+99940QOYgEQUA0ID+0skCqY/EFAAAjEkpkmQWN5vy5MmTaYDMQSIKAKCBvmN8TSqmtKoFAADQB4sk/R1SUyQ1OeeAkkQUAEAB/Re9LIbWlS3RAQDAM8VIanLuASWJKACABP1llgXQUDLiBwCwLGIkZduAz8E77rgjjY65SUQBACToL7YsfoaWmAIAmAdLiaQm9fdaFhxzlIgCAAjoL78YO2PL+VIAANMgXispi4klOtetzEsSUQAAjrHH+NrkfCkAgHrR7+gsIJbu0gJKElEAAI5NjfE1yYgfAEB9KKDuu+++NCKW7JyvBdUkEQUAcMg2xviaJKYAAOrAAoqIOu7HPvaxNDLmLhEFAPBLdD5SFjI1yPlSAADbQ+dA+Wi4//779/XHliwRtbqbgIgCgFGpYYyvTa1Kcb4UAMBmUUQpmh544IFrElEfSESt7iYgogBgNGob42uSET8AgPHRf7C6fPnykXCKZkGxRImo1d0ERBQAjELNY3xNKqb0X0cBAGAYLJxeeumlNJqiWVAs0baIeuGFF2bpmTNn1nYTEFEAMAqKkSxSpqJ+fkb8AABWo284ebOgWKJNEaXYgO1CRAHA4Gi3pSxMpiYjfgAA3VknnLycF3UgEVU3RBQADMpUx/iaJKYAAHIsnF5//fU0iFaRiDqQiKobIgoABmXqY3xN6p+NLdEBYOmMEU5eIupAIqpuiCgAGIwpbGc+hBpX5HwpAFgShNPmJaLqhogCgEGY4xhfk4z4AcDcsXB666230vBZV8KpWSKqbogoABiELDSWIDEFAHOCcKpHIqpuiCgAWJuljPE1yflSADBl9PtL8ZSFz7oSTqtJRNUNEQUAa6EL02ZRsVQ5XwoApoKtOmXhs66E0/oSUXVDRAHAyugv4Cwklq5W5gAAaoRwmo5EVN0QUQCwMozxlWW0D7bF//3f/+3913/9196//du/7f3Jn/zJ3r/+678ePgJLZexwIp7GkYiqGyIKAFaCMb5mdY4UwCZQNP3iF7/Y+/d///e9f/iHf9j77ne/u+/Zs2f3I0r+5V/+5d7//u//Hr4ClgDhNH2JqLohogCgN4zxdVOhCTAGCidF0z//8z9fi6aoBZQPqZ/97GeH7wBzxMLppZdeSuNnHQmnzUtE1Q0RBQC9YYyvm6xGwVB0iSbv1772tWMRZSHFeN+8IJzmKxFVN0QUAPRC10TKggFztVsfQF8smmQWSW2+8soraUSZ//RP/3T4nWCKEE7LkIiqGyIKADqjzRKyUMCyXD8KulA6r2lV2yJKcp7UtBgznCThVJ9EVN0QUQDQGcb4VpMtzyHjf/7nf3qN6PXRbyrRJON9dWPh9Prrr6fhs66EU90SUXVDRAFAJxjjW09Wo6DveU3rmAVTk4RUPRBOaBJRdUNEAUArjPGtL5tMLI9NRpO3tKlEm4z3bQ/CCTOJqLohogCgFcb4hlGreTBf1t0MYii7nA9VkvG+zWHh9NZbb6Xhs66E0/QlouqGiAKARrS7XBYE2F+tRumDE8yDoTeDGMp1IsokpMZDK/uEE3aRiKobIgoAijDGN7xseT5ttjWi18eum0q0CcOh36VadcrCZ10Jp/lKRNUNEQUARbRykoUAri5bnk+LKUST/M53vrP32muv7X3961/f/3CVRVFfYT1sXC8Ln3UlnJYhEVU3RBQApHAe1Hiy5Xm91HJeUxcVTt/61rf2/uzP/mzvT//0T6/51a9+de/cuXNpGPUR+jN2OBFPy5KIqhsiCgCOwRjf+F65cuXwTxu2jcLpP/7jP9JQqclSNJVcN6SgG4QTjiURVTdEFAAc45577kk/+ONwsuX59lE86cPvn//5n++bhcs2tWiSWSR1UatSq473QRnCCTchEVU3RBQAHEHXKdEv7/vuu2/v7rvvTgNg09bycwwtW55vB+2o94//+I/X4sn83ve+l8bMplQ0ffvb314rmjJXHe+Do1g4vfTSS2n8rCPhhJlEVN0QUQBwDY2YxV/i9957795dd92VRsCmVNDJbf8cQ8uW55tFI3tZPJnbiChtBtFnRG8d+4YUfIBGnB988ME0gFaVcMI2iai6IaIAYB99mM9+iUsFzDZH/PT9/c8xp5hiy/NxsfOdsmjKzEJnSPue1zS0fcb7vvGNbyza73//+/v/H7KAMrMg6iPhhF0louqGiAKAfWyMr8ltxZRF1LZ/jrFky/Ph6RtP5tCrUduOpkyFlEbSsnDyZmGxFH//939//88pBtSqEUU44SoSUXVDRAFAOsbXpCJmk+cpxYja1s8xlmwyMRyrxpO5bkQNsRnEJuxynlQWF0tQAfX5z39+78tf/vKxgDKzUIoSTriuRFTdEFEAC6dpjK/NTZ0vVYoos4bzttaVLc/XI+60t45ZHJVUNNl5TbrQbRYsNfuVr3ylON6XBcbctYB67rnn0ngys2iShBMOKRFVN0QUwMLpMsbX5CZG69oiSm7i5xhTVqNWY8h4MttWo2oc0VvH7Dypl19+OY2MOds1oEzCCceWiKobIgpgwWiL7ewX9yqOGTFdIsqcckyxyUR3fv7znzfutLeuc46mzDjep1G2LDTmat+AksQTji0RVTdEFMBC0QnT2S/tdVXEDH2eUp+IMsf4OcZWq1FsMtFM2zblQ6iVqCmc1zSGFlJZaMxVAgprlYiqGyIKYKGsO8bXpK0GDXWe0ioRZU7tfKkLFy4c/i8ExrqbRXRV8aSL3WZxsSR1btdS1H+4IKCwVomouiGiABbIkGN8TVpMZbHQx3UiSg71c2xKVqMOIJ5wbM+ePUtAYbUSUXVDRAEsjLHG+JpUxKwzWrduRJlTiamlbzKxyXj65je/mX64xmV45syZNJYyCSjctERU3RBRAAtjzDG+NhUxq4zWDRVR5rpRtwmXuOX5GDvtZWqjiDlvEoHdfPHFF9NYyiSgcBsSUXVDRAEsCO3+lv2i3qSrrAYNHVFmzedLLWk16he/+MXom0VIjewRTygJKJyCRFTdEFEAC2EbY3xN9ompsSJKrhJ1m3LuW55vaqc9zndCLwGFU5GIqhsiCmAh6IND9kt62ypi2kbrxowos8vPsWnnuOU5m0XgNiWgcEoSUXVDRAEsgG2eB9XVptG6TUSUqe9V04jfXLY8J55w2xJQODWJqLohogBmTm1jfE0qYLLRuk1GlCz9HNtyyqtR7LSHNUhA4RQlouqGiAKYOdkv5tqNEbPpiDJriakpbjKxqZ32iCdsk4DCqUpE1Q0RBTBjpjDG16QiRucpbSuiTPs5ssDZlLpA8hTYVDy99tpr7LSHrRJQOGWJqLohogBmypTG+KbiNrdE12rU7u7u4f+69fHzn/+cbcqxKgkonLpEVN0QUQAzRB+2s1/IuL7bHPGrcctztinHGiWgcA4SUXVDRAHMkKmP8U3BbcRUTVues9Me1uqrr76axlImAYU1S0TVDREFMDOuXLmS/jLGcdz0+VI1bHmuc57+4i/+Ig2fISSecB21CqV/NxVIDzzwQBpPkoDC2iWi6oaIApgRjPFtz02eL6VQ3hYWUPIHP/hBGkGryk57OISKKP3HDVP/fiqYCCicmkRU3RBRADOCMb7tuqkRv21tee4DasiQ+s53vsNmETiYMaJM/TuqeCKgcCoSUXVDRAHMBG2Bnf0Sxs2rD2xjx9SmN5nIAsr8/ve/n8ZRm+y0h2NYiigz+3cWsUaJqLohogBmAGN8daoPbGOdL7XJLc+bAsrMIimT851wbIkonItEVN0QUQAzgDG+etWHNq1KjXG+1CZWo7oElGwb6yOecFMSUTgXiai6IaIAJg5jfNNQH97GGPEbc8vzrgFlZmN9xBNuWiIK5yIRVTdEFMCE0Qfo7Bcv1qs+xA054jfWJhN9A8r08cROe7gNiSici0RU3RBRABOGMb7pqg9zQ434Db3l+aoBJRVQxBNuUyIK5yIRVTdEFMBEYYxv+uoD3RAjfkOuRq0bUNmHWsRNSkThXCSi6oaIApggjPHNS32wWzemhthkgoDCOUhE4VwkouqGiAKYIPqQkP3CxWmrD3irni+l1ah1NpkgoHAuElE4F4mouiGiACYG50HN33vvvXel86UuXLhw+P+SfhBQOCeJKJyLRFTdEFEAE4IxvuWoD3urjPj1XY0ioHBuElE4F4mouiGiACbEuXPn0l+0OF/1oa9PTPXZZIKAwjlKROFcJKLqhogCmAh/+7d/u/fII4+kv2hx/urDX9fzpbpseU5A4VwlonAuElF1Q0QBTICrV6/uPfXUU0QUdjpfqm01ioDCOUtE4VwkouqGiAKonN3d3f2AevLJJ4ko3FcfBNtG/EpbnhNQOHeJKJyLRFTdEFEAlaMxPiIKM/WBsBRT2ZbnBBQuQSIK5yIRVTdEFEDF7Ozs7AeUfOKJJ4goTNUHw+x8Kb/lOQGFS5GIwrlIRNUNEQVQKTbGZ6tQRBQ2qQ+HWpWK50tpNYqAwiVJROFcJKLqhogCqBQb4yOisI/6kOhH/F5++eU0jrpIQOEUJaJwLhJRdUNEAVTIu+++ey2gpAKKiMI+6sMiAYVLlIjCuUhE1Q0RBVAZfoyPiMJV/drXvpbGURcJKJyyRBTORSKqbogogMrwY3zSRvmIKOwqAYVLlojCuUhE1Q0RBVARcYyPiMK+ElC4dIkonItEVN0QUQCVcPXq1WMBJS2giChsk4BCJKJwPhJRdUNEAVRCHOMjorCPBBTigUQUzkUiqm6IKIAKyMb4pB/lI6KwJAGF+IFEFM5FIqpuiCiALVMa45NEFLZJQCEelYjCuUhE1Q0RBbBlXnnllTSgpA8oIgqjBBTicYkonItEVN0QUQBb5J133knjScZVKCIKvQQUYi4RhXORiKobIgpgSzSN8UkiCksSUIhliSici0RU3RBRAFuiaYxPxoAiolD+7u/+bhpHXSSgcAkSUTgXiai6IaIAtoC2M3/mmWfSeDKJKCx55syZNJKaJKBwKRJROBeJqLohogA2jMb4nn766b1Pf/rTaTzJbJRvyRGlD0V41L/6q79KYymTgMIlqX8/sngys98xiDVKRNUNEQWwYRRQWoUiorp74cKF3v74xz/e+/u///u9b3zjG7NVcZRFk5eAwqVJROFcJKLqhogC2CAa4/MRpftZRGUBJRnn6+ZnP/vZa5svfPvb304DZA6+9tprx6LJS0DhEiWicC4SUXVDRAFsiJ2dnf1o8hFVOi8qCyhJRLXrA8pCIguQOfitb33rSDR5CShcqkQUzkUiqm6IKIANsLu7ey2gpAKqFFGlUT5JRDUbA0r+4Ac/mPVq1He/+90j/7ySgMIlS0ThXCSi6oaIAtgANsZHRI1nFlDm9773vTRA5mBcjSKgcOkSUTgXiai6IaIARsaP8Ukb5TNjRGXxZBJRuU0BJbUalQXIXFQ46Z+TgEIkonA+ElF1Q0QBjEgc41snorRCRUQdty2gzDmP9OmfjYBCPJCIwrlIRNUNEQUwInGML4soHbOAKo3y6bgeJ6KO2jWg5De/+c29r3/967M1+zCJuESJKJyLRFTdEFEAI/Huu+8eCyjpA0r686KyiLKAYiXqqH0DKvuwhYjzk4jCuUhE1Q0RBTACV69eTQNKNkVUKaDsMSLqQAIKEUsSUTgXiai6IaIARiAb45NxlM9HVFyF8gFFRB31q1/9ahpMUQIKcXkSUTgXiai6IaIABqY0xieziJIxonw8+ceIqE/s/3lpW+/XXnvt2q50mQQU4jIlonAuElF1Q0QBDEjTGJ+M8WQqlEoB5R8jog4iyu9Mp6CKF5wloBCXKxGFc5GIqhsiCmBASmN8ZownU4+VAkoSUR+oPy8fUT6mtDpFQCEuWyIK5yIRVTdEFMBAvPPOO8eiyVsa5ZNZOJl+zI+IKkeUyXbfiMuWiMK5SETVDREFMABtY3yyKaL0eBZQ0gJKfupTn0p/0S5J/Xll8WQSUYjLlojCuUhE1Q0RBTAAr7766rFoiq4bUY899hgrUb9Uf15ZPJlEFOKyJaJwLhJRdUNEAayJzoN69tlnj0VTNIaTqbjS41lA+VE+IupA/Zll8WQSUYjLlojCuUhE1Q0RBbAGNsaniPrMZz5zJJqiMZ6kAsoiSsaIsoBSPNlt9ot2SerPLYsnk4hCXLZEFM5FIqpuiCiANbD4+exnP9u4GlUa5esSUY8//jgR5dSfWxZPJhGFuGyJKJyLRFTdEFEAK2LbmSuCFFHSB5E3iygLKP8aH1A2yqfNJBRSRNSBRBQiNklE4VwkouqGiAJYgZ2dnWvhow/1FlGl1agYUVlASR9RiqZHH3302ioUEXUgEYWITRJROBeJqLohogB6sru7eyR8dC5UW0T5gGqKKGkRpdWnT37yk9dWoYioA4koRGySiMK5SETVDREF0BMb4zN9RMlsg4lSQJUiSqN8Cia/CkVEHUhEIWKTRBTORSKqbogogB74MT5Tq08+ouJqlEKpFFDSP1cqorSduVahdOsjiovtElGI2CwRhXORiKobIgqgI3GMz4wRJX0c6X6fiJIKKOkDys6Pyn7RLkkiChGbJKJwLhJRdUNEAXQkjvGZMaCkX41SKJUCSvr3kgolBZSiyQJKK1JE1IFEFCI2SUThXCSi6oaIAujAu+++eyx2pCKoLaL6rELpXChbhbINJXT78MMP798noogoRGy2FFH33nvv3qlTp/buuuuu9HcLYm0SUXVDRAG0cPXq1WOxY+oDfRZR0jaYKAWUjO9nq1C6tVWo06dPX1uVIqKIKERs1keUwknRdOedd+7dcccd++o+IYVTkIiqGyIKoIXSGJ9siiitRmXh5PXvZVua+1UoBZS0oCKiiChEbFYRZfFk4RQlpHAKElF1Q0QBNFAa4zPj9ubRplUoae+jHfksoGwVSrcPPfTQkR36iCgiChGbffXVV/d/b2bx5CWksHaJqLohogAKNI3xmW0RpcezeDLtfRRHfhVKHwAUUH4Viog6kIhCxDYJKZyDRFTdEFEABZrG+Mxse3NTjymimkJK76E4soDSdaAUUQqouApFRB1IRCFiFwkpnLpEVN0QUQAJ77zzzrFgysziyfQRlYWUvYcFlNRf+Fp9ylahpI5lv2iXJBGFiF0lpHDKElF1Q0QBBLqM8UmFUBZPMgZUFlJ6D/3l7iPKAipbhdIqlbY6z37RLkkiChH7SEjhVCWi6oaIAgjoL9wYTJn6MF8KqFJESYsof00oqUCygIqrUPrazH7RLkkiChH7SkjhFCWi6oaIAnDoPCgLoCycvKtGlFRE6fwmCyOLJ9NWoXR+lD2ulSgiiohCxNUkpHBqElF1Q0QBHGJjfBZBNnJXUjFUCqi2iFIgaeXJfPDBB6+tRCmWLKAsqvSYRVf2i3ZJElGIuKqEFE5JIqpuiCiAQyyOFEAWRE0hpRhaJaD0nhZGFk72tW71F7y041LjfkTUgUQUIq4jIYVTkYiqGyIK4Jf47cwtoiyMfDh5/fP6RJSd/2Tef//91+5rFSoGlFRAEVEHElGIuK6EFE5BIqpuiChYPHE3vhhHCh//uOmf4wOqKaKeeuqpa6N78oEHHjjytZ3/5NUxIuoDiShEHEJCCmuXiKobIgoWze7ubmMcmfrgXnpeDKimiLIwUjDp9r777rsWUHYsagFFRB1IRCHiUD7//PN799xzTxpPXkIKtyERVTdEFCwaP8YX48irMPLnR+m+f6xLQCmCtPJkwaQxPj/Kp8diQPlVKCLqQCIKEYfy7Nmze7/6q79KSGGVElF1Q0TBYtnZ2TkST6aPJ68CyZ6jD/J2LJoFlMb4/OiebrUKpVCyoNKxGFE6R8pHlJ6T/aJdkkQUIg6lIurzn/88IYVVSkTVDREFiyQb45N+hSlTQaTn6VZfd40obSZhK02KJv1ytFUohdG99957LKD0mA8orUIRUUQUIg6nRRQhhTVKRNUNEQWLJBvjk20RJS2MsoCSPp6krvmkgLJRPsWTVqEURBZUMkaUbWsu9Twi6kAiChGH0kcUIYW1SUTVDREFi+Pdd99NA0p2iagsnMwYUHo/CygFkOJIAWUbStgqlD3m9QGlr4moA4koRBzKGFF9Q+q2227DkVRAZH8HLEkiqm6IKFgUpTE+c+iIsjE+qRCyVSgb5dP9bJTPNpTQ6/W1nmvRlf2iXZJEFNbgH/zBH+z99m//Nk7c3/zN3zwWUV1DSh/0sw+3uL7689Xfj9nfAUuSiKobIgoWRWmMz9QH9CycvBZIbRFlm0n4lShbhVIYKaQUUPpF6QNKKqC0qYR9ragiog4konDb/s7v/M7+74vPfe5z6QdwnIcKqabrSGUfbHF99Wdrf1dmfwcsSSKqbogoWAxNY3xmW0T5UGoKKKn4yQJK8aSvFVBSj1ssWTD5gFI8EVEfSEThNv2t3/qta78v9O959uEb56FWqf77v/97f+QvBtRHP/rR9IMtrqcPKCKKiKodIgoWwdWrV4/EUsmmiIqh1BRR+q+XFlBSvwztLwWFkb62iFIYWTBJG+EzFVBE1AcSUbgNv/zlLx8JKFOrFdkHcJy+X/3qV/f//tAYeAypW2+9Nf1gi6sbA0pmfwcsSSKqbogoWARtY3xmU0T5SJKliIpjfPbL0P5S8KtQOu6DSaEk/dcWUETUgUQUbtqXXnop/X0hn3vuufQDOE5fiyjhQ+rkyZPph1pc3SygZPZ3wJIkouqGiILZ02WMz1QEZQEVV5pkKaL8ZhK2kYR+GepWEaRbiyg9x0dU1K9CEVEHElG4SZsCSur/j9kHcJy+PqKEhRQbSgxrKaBk9nfAkiSi6oaIglnTdYzPVAR1CSgzBpS/JpQPKKn7tpmEqSiyYPL3pa1C+YjS+/pfsEuUiMJNqR34st8TUUb65mmMKKGQunLlCg7km2++eSSaotnfAUuSiKobIgpmzauvvpp+6CmpEIoRZYGUGSPKB5R+ASqU/C9EH1DSR1OMKAsoIuqoRBRuQtuBr4v6HZB9CJ+6P/3pTxftf/7nfx7+TQJjoZDK4snM/g5YkkRU3RBRMFt0HpRFjq7/lH34iSqEfED5QMq099d9G+PzAeX/EogBpWM+oHxEZatQOk5EEVE4vtkGEk3OdaQPYGyIqGaJqLohomCWaIxP4WSRI/VBJ/sA5FUM+YjywZRp722bSVhA6Ze/LtRovwj1dYwoPd+iSa+z+zJbhdJxIoqIwvEs7cDXxTmO9AGMDRHVLBFVN0QUzJJXXnnlWESZTatSerxrQEk9X7cWQvaLz0Ipfu21YFIY+aDyq1A+orRSRUQRUTiObRtItKnfA1mITFmAsSGimiWi6oaIgtmhMT6tDOnDto8nb2lVSo8poHTrY6lJXRPK/9LTL36/CpUFlI5bNOm+H+XzAUVEHZeIwqFdN6CkdgHVpgNzEmBsiKhmiai6IaJgVmiMTwElFTg+nDLjqpSO9VmF0gf6+EtPAWWhJO++++5rfyFYRNnKk0WRBZT0K1EWUDpORB1IROGQdt2Br0n93gGA/hBRzRJRdUNEwWzQfzm1gJI+lpr0q1L6uhRMiitdWPNzn/vc/vkPUptJ+F94CiRFlP3y1337WlpEKYiknmNBZQGVSUR9IBGFQ9lnB75MjQ0TUACrQ0Q1S0TVDREFs8HG+GTpfKgm9RoLJsVSDKaoPkT5X/K6b9FkX2sVStFkfyFYRCmK7BwqC6imiLLoIqKIKBzGVTeQMBVQALAeRFSzRFTdEFEwC3Z2do6sQumDdoykLmaxVDL+kreAUiTZ136UT9pjtgrld+XL4knqMSLqA4koXMd1duAz9R9sAGB9iKhmiai6IaJg8sQxPmkrSn3UylMWS5mPPvrokV/yuvWrUIolBVQWUYohW4XS/aaAkkTUUYkoXNUhNpB45513Dn/zAMC6EFHNElF1Q0TB5PFjfGYWSU3qfKem0T2vAi3+oo+rUBZQOuafZxFlvyDbVqGkBRQRdSARhas41A58ADAcRFSzRFTdEFEwafShJgaUPuxkodSkIioLpkxtJuF/ySuMLKL0tW4tovSYf66/lpSCqC2gJBF1VCIK+8oOfAB1QkQ1S0TVDREFkyUb45N9N5WwXfeyYIo+8cQTR37B+4CyiLKAkv650v9yVBT1GeUjog4korCP7MAHUC9EVLNEVN0QUTBZsjE+qQ/ZWSyV7LoKpef5X+5ZQOm2a0R1WYUioo5LRGFX2YEPoG6IqGaJqLohomCSZGN8Zp9NJfqsQsUxPkWSjyhFlQ8oCyuvjfOtMspHRB1IRGGb7MAHMA2IqGaJqLohomByaLQmiyczi6VMBZTssqGEPlT5X+y24lQKKBnPh9IvRL8rXxZN3rgKRUQdSERhk+zABzAdiKhmiai6IaJgcpTG+GSf86EsorJoiipg7Je6BZMFlAVV1P9FoNcooCyiVhnlI6IOJKKwJDvwAUwLIqpZIqpuiCiYFE1jfLLr+VAWUF1G+fw1oaRFUlNE6Zh/jbSIUghl0RSNAUVEHUhEYSY78AFMDyKqWSKqbogomAxtY3yyS0RZQMm2Ub54TSgLphhQdmv6UT7d1y9Di6guq1AyiyhbyVqyRBRG2YEPYJoQUc0SUXVDRMFk0AedLJy8XTaV8BGVhZPXbyZhY3wWTT6cYkT51/hRPpkFUzQb5SOiDiSi0MsOfADThYhqloiqGyIKJoFO9M6iKZpFk9cHVNson78mlA8oaRF11113HQsq6V+nWwsohdA650MRUUQUHsgOfADTh4hqloiqGyIKqqfLGJ9s21TCB5RsGuXT4/4XuQ8kH01ZROm+XmOrUPpFaBGlODKzeDJjQBFRH0hEITvwAcyDWiNKf5ffdtttWzeLJ5OI2j5EFFRPlzE+2XY+VIyoLJ5MP8bnA8kiSSqg/Nf2uK0+WURZQCmCfEQ1hRQRVZaIWrbswAcwH2qNqFOnTqXhUpNE1PYhoqBqmrYzjzadDxUDqmmUz28moQiyODItmGJE2XF7ncWURZRCyAeUxVEMKv+YqYAiog4kopYrO/ABzAsianWJqO1DREG1dB3jM7N4kjGgZNMon6JFv7zbAsqP8nnttdICKluFiqEkS48RUR9IRC1TduADmB/vv//+3oULF6rz7NmzabjUpCJKf3544O7u7uH/qzYHEQXVkoVSSX1IygJKZhGVxZP014SKASUVSRZQpYiygLKIUvz4QCqFUkkLKCLqQCJqebIDHwBsEq2QZeGCm/HEiRN7H/rQh3r53nvvHf6vtzmIKKiSPmN8srSpRBZQpVE+P8anGMoCSrcWUHbM6wNKH/iJqOElopYjO/ABwDYgorYrEQWwIjs7O2koNakP1l0CSmYBJW0zCQWQjydTkeRXoexYKaIsoGQMKCJqdYmoZcgOfACwLYio7UpEAayAZlqzSGoz21QiC6jSKpQ+cDWN8Zk+omJA+YjS+zStQnWNKB9QRNSBRNT8ZQc+ANgmRNR2JaIAVqDvGJ/ZJaBktqGEjltAKYQslpoCKosovwqlD/sWPoohImo4iah5yw58ALBtiKjtSkQB9GSVMT4Zz4eK4eSNASXjGJ9FUlNA6ZgPKH3tI2qMUT5JRBFRc5Yd+ACgBoio7UpEAfRg1TE+Gc+HyuJJZqN8tplEn4Cyx31ESQsovZ9Fj0LIoqlvRPl4MokoImqusgMfANQCEbVdiSiAHqw6xid9RGXxZGajfIoVRU+MpbaI8vGk51hASX3Qt+jR+/toIqLWl4ial+zABwBL4+LFi/uhcMMNN+x9+MMf3rvxxhv3PvKRj+x70003HfGWW2455q233jqI2XubWdyY8Wc09fPrnyVT/5z6543qz+G6665LzWKpJBEFi0QngGdx1FW/qUQWT2YMqCeeeOLYeVCyLaCkDyjpI8pHTwymtojSa/z9KBFFRM1JduADgKUSQ8oiatWQyo7Z8bbHMrN4MuPPJ+1nLwVUFlH657/++uvXDihJRMHi0PkLWRh1VR+iugRUHOUrjfFJH1CnTp068pg97iNKtxZQcZQvhlHXiLL3iBJRRNRcZAc+AFg6FlIWGQqOVUMqO+YfKx0vmcWTGX82+5mziLJ/thhRFlBZRGWR1KZOC9k0RBRslXXG+KRtKpGFkzeO8mkziSygLJJkFlD2eGkVSh/yLXh8DPlQIqLWk4iavuzABwBwgA8pC48spBQvMXRKUdT3eGYMJ6//uXxAyVJAxYiygIoRlQVSm2+88cbhn+ZmIaJga6w7xiftfKgsnLw+oPQBLDsPygLJjpciyq9C+YjSeypypILHR5G3FFE+lkoSUUTU1GUHPgCAo/jRPh9SPlakAibGTimK+h6PxnDy+p+pFFFdA8pHVBZIXdzGKJ8gomArrDvGZ2osL4smbxzls/OgskCyMFJANUWUPU/3LaD0Ad8iykdRjKWSPpZKElF5RCmcXn311b1z587tfelLX0o/vOP2ZQc+AICcIUJq3ePeGE5e+1liQMm2iIoBZRGVxVFXtwURBVtBY3z6UJSFUR+zaIr6Ub6mMT5px0sRZeFkEWWrUPYB3yLKh08WTFH//CaJqA8iysLpi1/84t7zzz9/zbNnz+595StfST/E43ZkBz4AgHaykJI+omQWPaUo6nvczOLJLAWUzALKIsqfBzVUQOnPbFsQUbBx3n777f1zmVbVPlR1WYWSFlC2mcSqASUtnky/CiWJqPFVRL3wwgtHwimqkMo+zOPmZQc+AIDuaDQtU9euqsXs59uW24SIgo2iMT5tLZ7FUV+1wqRRvSycTD/Kp1Wo0hifVBRZQHWJKBvlsw/3WUDJLJqi8TUliagD9b9rFk/el19+Of1Qj5uTHfgAAGCuEFGwUXS+ypNPPplGUR+1GmFxlMWTac9RuCl4sjCSiiLd9omoTa9CSSLqAzUelsWTl7G+7ckOfAAAMGeIKNgYOqdBMbNuRCmgNJr3a7/2a/uWVqNsFUr3mwJKKop8QHWNKP+hvm0VKn7tj3eViPrAxx9/fO8P//AP03gyGevbjuzABwAAc4eIgo1gY3xSG0JkcdRVOxfKIqq0GmUbSpw+fXo/erIo8rZFlA8ojfL5VSi5SkTF57dJRB1VIZXFk5exvs3KDnwAALAEiCjYCBZQ60aUrUIpkCyiSqtRCih9KIvnQWWB1BZQ0kdUl1Uo6WPJx5M/3kci6rhdxvr++I//eO+P/uiPcGTZgQ8AAJYCEQWjY2N860aUBZRUIPmIiqtRNsrXNsYnY0B1iaj4Qb7PKlS830ci6rhajfq93/u9NJ6kPtx//vOfxw2ofzezOOoiO/ABAMCUIKJgVHZ2do4E1DoRZQGlSPIBZfrVKK1UPfLII8dCKAZSjCfTP0f6gNLKVvwgnwVPUzStElCSiMptGuvT6kj2gR+H11Z/+8oOfAAAMDWIKBiN3d3dYwG1akT5VahSRPnVKD1PweNDKAskH05e/xzpI8rOhdKt3c+CJ0YTETWuv/Ebv3EsoLRDXPZhH8fx13/91/f/3ctCqSQbSAAAwBQhomA04hifqQ9OWSg1aQEl4yifV6tR8qGHHjoWQjGOYjiZ/jmmBZRtKOHVB/jSOF92fx2JqGbjWB+rUJtX//7FUMpkBz4AAJgyRBSMQjbGZ2aR1KQPKJnFk6nAeuyxx45FUAwk3f/4xz9+7bjXv076VSi7NlQMKDMLn7gKtY5LjagXX3xx78KFC63+6Ec/YhVqy2o1KosmLzvwAQDA1CGiYHBKY3xmFkol/RifLI3ymfqv4DGCZAwkBVTfiGpahWoKqaECSi41ot5///3D/3e187Of/YxVqC2rf1ezeJLswAcAAHOAiILBKY3xmVkslfQBJePW5tGHH374WATFONL9UkBJ/1rZtAolY0RJi54hV6Gk3tvHxVLsE1HiX/7lX/b+7u/+DregIkr/nmYBxQ58AAAwF4goGJTLly+n4eTNYikzBpRsOh9Kj8cAyuJo1VWoVSPKR9C66r19XCzFvhEF2+OnP/1pOtLHDnwAADAniCgYDJ0knkVTNAumaBzjM7N4MvVhO0ZQjCPdXyWiFFA+ovwH/FJAjSERBVNAIaV/Xy2g2EACAADmBhEFg9E2xieffPLJNJqiMZ5k0/lQpWtC+TjSrQVUn4iKAbWtVSip9/dxsRSJqGmh8yJ//OMfswMfAADMFiIKBqHLGJ/sco2oLKBk6XwoPRbjJ4sjH1BdIsqP8dWwCiWJKJgKCikAAIC5QkTB2nQd45NtEVUa45NZQMmmzSQsjHTbJ6CkX4UiorYrEQUAAAA1QUTB2nQZ4zPbIiqLJ1ka5dP5FjF+sjjyAdU1otpWoSQRtRmJKAAAAKgJIgrW4u23305jqWRTRDWtQmWjfNk1obI4kn0jKluFyj7cbzKgJBEFAAAAsH2IKFiZPmN8ZimimgJKZlubxzE+hVAWSDGgsuf495F+FYqI2r5EFAAAANQEEQUr86UvfSkNpSZLEZWFkzcGlI756LFYinEU4yl7jvTvJX1AyeyD/aYDShJRAAAAANuHiIKV6HMelFfnMMWAaluFys6H0gdrCx4LoRhIMZ5M/xzTB1Stq1ByiRH14osvstMbAAAAVAURBb1ZZYzP7BtQMp4Ppffx0aMIinEUw8nrn2f691NE+ZDKPthLImp8L126dPj/OgAAAIB6IKKgNzGM+hgjKoumqA8ofe2DRwGUxdHHPvaxI+Hk9c+T/v3s2lA+pNpWorLYGculRNTrr7/O6hMAAABUCxEFvVh1jM/0AdVlFSqO8vnNJCyCFEw+ihRKq0aUDyipgMrUB30iang1usf5TwAAAFA7RBR0Zp0xPtNHVBZNUT/K568JZQGUhdGdd955JJq8/nmmvWdpFSpzGwEls4jSz3nbbbdN2hdeeGHv4sWLh/9PAwAAAKgbIgo6odGqLIr6+OSTT/YKKOm3No8BJeMqlL7uE1H2nllEZfEkFS5NETVmXGURdfLkyb2bb755shJPAAAAMDWIKOjEumN80iKqyxifaQFlY3w+gGxkz77WfQXUKqN8CigfUV1WoWqIqCkH1Pnz5znvCQAAACYJEQWt7OzspFHUV7tGVBZLmXY+lO7HgFIQ9V2Fkv75MguodVah5KYiSj9/Fie1q9E9znsCAACAKUNEQSNDjPGZiqgYSk3a+VAWDN5trULVElH6ebNAqVnOewIAAIC5QERBI0OM8ZnaGCKLpZI6H0qv67IKpYBaJaIsoHxEZfEkfUCVQqnpsSHUe+vn0GYMWajUKvEEAAAAc4KIgiKXL18+FkKrqHOhpMbznnvuuf3bZ599Ng0n055bCigfRfraIspHU9S/j1xnFaoUSk2Pedvep6SeP6XzoBjdAwAAgDlCREHKOmN8Fk1erUIpiqKlmFJEPfTQQ8fCR8HkI0q3XVahpH+fbBWqT0CV4qfpMdO/R19/8pOf7F25cmUSEk8AAAAwV4goSOk7xpeFk6lzobQjXxZRZlyd0ut89EiFkEWUHdP9tojyzzeziMriSSqgaoio119//fB/HQAAAADYJkQUHKPLGF8MpSa1CqVAyuIpU0EVo0daQCmM9LVuLaCkD6dofK8YUG2rUBZRPqaa4ig+5vXP6+qLL754+L8OAAAAAGwbIgqOcPXq1bWjyauAKo3ylTx9+vSx6FEIWUTZMR9QFldR/3xz1VUoH1CyKY7iY17/vK4yGgcAAABQD0QUHMHG+LIg6qvG+BRQbaN8Xj1f8eOjx2LIQknHdL9LREn/XtIHlFxlFUo2xVF8zOuf18VLly4d/q8DAAAAADVARME1NMaXxdCq2ipUn1E+RUaMHgsoqa8VRj6gZAwnaWHl3yuuQsksnmRTQMmmOIqPef3z2uQ8KAAAAID6IKJgH43xPf7442kMraKtQknbrrzNRx999Fj0WAz5INJ9H1D2WFTH/XvJGFDZKpQd6xNRTY9F43NLch4UAAAAQJ0QUbDPuXPnBosoH1AyC6aoduSz+PHRYwFlQaTHfUCVIsqO+feSMaIsmqIWUYoZH1PepjDyj0Xjc0tyHhQAAABAnRBRsPejH/1o77HHHhvsXCgfUF3Ph1JcWABZ8FgM+SCKASXtdaa9xt7HLF0bKtPCqRRQsimM/GPR+NxMAgoAAACgXoiohaMxPgXUUBEVV6G6jPLp+/oIUvD4GLIg0m0MKB3zr7XX6dYHlPQB1RRRfpRv6IiKz8vkPCgAAACAuiGiFo7G+IaKqBhQMoumqMLFAsiCx+LJR1IMqCyi7DU+nmS2ClWKqC4BJZvCyIeTN3uul/OgAAAAAOqHiFowNsZnZmHUxxhQXUb5dE0oH0EKHh9DFkS6zSLKv9a/zgeU7BpRXVehZCmMfDRF43OjjPEBAAAA1A8RtVD8GN8QEZWtQrVtba7nxAiyYDLteBZQ/nHpXxMjKguoLKJiQG0yoggoAAAAgGlARC2Q3d3dYwG1bkTFgJJZOHkVFT6CfAiZCqAsoKQFU3xtDKjSKlSMqD6rUDILIztW0j/XywV1AQAAAKYDEbVA4hjfuhGVBVTbKJ9dEyqLoGgWUDJ7re7HiCoFVCmifExlwWPGKIrBlOmfb7KRBAAAAMC0IKIWxs7OThpQq14jKhvjk02jfP6aUDGCvDqexZO0x+NrY0D1iai+ARWjyMdSSf98UyuDAAAAADAdiKgFURrjk6tGVBZQsmlrc8WEBZBFkIVRNMaTqcdiROl+DCg/yhcDykfUKqtQPors6zb9e0jOgwIAAACYHkTUgiiN8clVIiqLJ9k0yqfHLX5Mi6JoDCevvdY/X1/HiOoSUNkqVJeI8ve76t+D86AAAAAApgkRtRAuX76cxpPZ9xpRpTE+2RRRChYLIGlR5GNI+mCKWjBJ/5oYUGOtQkkLohhJTfrXcx4UAAAAwHQhohZA0xif2TeisngyS6N88ZpQCqI77rjjSAjJGE1RPScGlL4uRVQWUHLVVShpURRDqUl7LRfUBQAAAJg2RNQCaBrjM/tEVBZO3iygdNwHlI8lH0M+lkr69zBjQMnSKpQd8ytRfSNKZqHUpL2O86AAAAAApg0RNXPaxvjMLJYym8b4ZGmUTxERAypbhdKxGE1ePScGlL6OAZWtQllU+YjKAmrMiOI8KAAAAIDpQ0TNmKtXr6bBlJkFU2YWTt5sa3OtcsWA8lFk6usuERXNIsrHUimg1lmFKpnFk8l5UAAAAADzgIiaMV3G+MwsmKJtq1AyBlS8JpTFULYKdfvttx8JpkwLMW8MKL+hROaYEVXyi1/84uH/KgAAAAAwdYiomdJ1jM/MosnbJaCyUT6twGQBpVsfQjo21CpUW0Q1BdRYEcV5UAAAAADzgYiaIX3G+GSXa0Rl0RSNo3w6FgNKxlUoHdMq1CoRFQNKKpRKIbWNVSgCCgAAAGBeEFEz5Ny5c2kslWyLqC6rUDJuba5QUUApdiyESqtQXUb5/GtkaRWqaSVq06tQnAcFAAAAMD+IqJnx9ttvp6HUZFNEdQ2oOMr36KOPHgsouYlVKLuNtq1CDR1RBBQAAADAPCGiZkTfMT6z6RpRWTBl+lE+fV0a44tBpIBaZRVKxoCSTStRiieFlAXU2BGlixwDAAAAwPwgomZE3zE+sxRRXVehpB/ls80kfAQpoOIqlL5eNaJKo3y6jfGk43EVSrdjBhTnQQEAAADMFyJqJvTZzjxaiqgslkpaQNk1oWIExVUo3beAsscyY3iZMaBkKaJkXIUaM6K4oC4AAADAvCGiZsCqY3zmugHlz4dSQClyYgjFiNLXXVahsojKVqHMOMpXWoUaa5SP86AAAAAA5g8RNXF03k0WRn2MAdVnjE/a+VAa41PkZCGkW4sg3e+6CqVbe52piIpaRPmAMuMqlO6PEVAvvvji4f8qAAAAADBniKiJs84YnxkjKgulJhVQurVAiiEUY8gCqi2i9Li9xts1omwVylaiLKC6rEKtElacBwUAAACwDIioCbOzs5NGUV/XCSgb5dMqVIygLKD0tY+o+Bozvs5bCig/ymf3/SqU7utYDKgsmLJjTXIeFAAAAMByIKImyhBjfNJfI6rvGJ/UKJ+uCRUjSMaI0q0PKHssU4/HeNLxGFBNERVXoSyqYkDFYMqONcl5UAAAAADLgoiaKEOM8UkfUVkktfmZz3zmWADJGFBSX/uIiq8x7bU+oMxSQEkfUBZMuu2zClU6XpLzoAAAAACWBxE1QYYa45MWUVkgtalRPoVEKYKkvlb86NYHlD0W1XE9HuNJj+m2FFBdVqH0tY+kLJZKx0tyHhQAAADA8iCiJsZQY3ymruu0yhif7DrGJ31ANUWUPWavM/WYD6hSRNmtRZQCSrc6pvs+kmIsNT2WSUABAAAALBMiamIMNcZnKqKyQIo+88wzx4wBJC2gfETpfoyo+Dppz9P9GFC6LQWUVCRZRFk0aRXKxvhkUyRlj0kfTV7OgwIAAABYLkTUhLh8+XIaQuuoVagskNp88MEHjwSQGQNKtzGg7PGoPeYDyt7DB1SMqKZVKAsoxVRTJGWPSR9OJudBAQAAACwbImoiXL16NY2gdc0CqU2dRxUDSFpA+YjS/S4RZc+z1/mA0m0poCyiTL8KZfdlFkhSUZQdN2NAScb4AAAAAJYNETURhh7jkxrlyyKpTa3w+ACSFk8WSBZAMaAslKL2WAwo2RZRiqS4CuXH+EqrUF0koAAAAAAgQkRNgDHG+OQqo3ynT58+Ej9mFlE+nEx73GuP2etiRDUFVJdVqNKGEl30AcUFdQEAAABAEFGVozE+7YKXRdC6ljaMKKmt0C1svFlA6b6PJx9K8bX2WBZQut8loiyY4iqUzOKoqxZQbCQBAAAAAAYRVTka4xsjolYZ5cvG+GSMKOnDyfSPx+fpsSyimgLKR5RfhfIBVRrl67M6pYjS1vIAAAAAAIKIqpi3335775FHHkkjaF37jvKtu5mEhVJ8rT1mr/UBpftNEaVjcRXKj/HJLIoUUH0iivOgAAAAAMBDRFWKxvgUUGNFVN9RPsWKxY1p8WTacR9OXv9a/zy91gKqFFExoPSYrUJZMHVdhSodz+Q8KAAAAACIEFGVcu7cudEiqu8oX9s1oUyFjY8mrx6Pr7XH9HUMKNm0AiXjKpQPKJmtNulY14jiPCgAAAAAyCCiKkTnQVlAjRFRfUb5uozxWSD5MIrac7LnWUD5iNL9LKL0tR6Pq1BZRMUosoDqMsrHBXUBAAAAoAQRVRl+jE+OsalEn1E+BYeFjdfiydQxH0ZR/9p4PAaUHcsCSsd130dU11UoBVTXVSjOgwIAAACAEkRUZfiAGiOi+ozy6fv7sDGzgNKtjyOvPSd7XhZQMq5CWUBJxZOOxXDyxiiyVaguEcV5UAAAAADQBBFVEXGMb4yI6jrK1+WaUKaO+zCK+tf743ptFlH6uhRQ+rotomIo+YBqG+XjPCgAAAAAaIOIqoSdnZ1jATVGRHUd5RtqjM+eY6/1j2UBJf0qlA8o6cf4SsZQsoCKcRXlPCgAAAAA6AIRVQG6kGsWUHLIiOo6ytd1MwnTh1FUj9vr4/EsovR1FlB6LK5CZTGl86N8GPlVqLaI4jwoAAAAAOgCEVUB2RifmcXQqnaNKMWJDxvpo8nUcR9Gmf718XgMKDtmK1EWUPa8toCSfhUqBlRcofISUAAAAADQFSJqy5TG+Mwshla1yyjf6dOnj4WNoicGlOnDKKrH9fr4PH3t48gb48meo3gyFUu6bdvW3AdUU0RxHhQAAAAA9IGI2iJNY3xmFkOrmkWTNxvjswDSbdSHUaa9R3Y8CygdyyJKauVJtxZQ+jpGlELJwigGlH/MS0ABAAAAQF+IqC3SNMZnZjG0il1G+bRS46PGQinGkx1v07+HVzHkv4+pgNKtjyd97VehFE96ngIqRpStNMUxPllahWKMDwAAAAD6QkRticuXL6fR5B1yU4m2UT59Px800qInBtTJkyePRFGmnuffw9SxLKLsmA8oO2bhpFDSMVuF8hGl+xZGMaBKEUVAAQAAAMAqEFFb4OrVq8eCKXPIiMrCyeuDRip4FEsxoOy4D6NMvYc932thFNVxPd/iyb7W6pPuK5yk7ltA+YiySMoCSsaA4oK6AAAAALAqRNQW6DLGJ4eKqLZRPgWIDxofPRZPZtdVKJkdVwT572XqMd1aQNl9RZStQumYX4XyEaUwysb4ZFyF4jwoAAAAAFgHImrDdBnjM4eKqKZRvriZhAVPtgqlY10jKjvuv09Uj1tASb2HgkmPKZJswwkfUBZRCiXFUYwn00cUF9QFAAAAgHUhojZI1zE+c6iIyuLJtFCRFj8WShZP5kc/+tGVI0rHFEH2vbx6XLcWULqvaPKbSej1cRXKIqopoKQFlOQ8KAAAAABYFyJqg3Qd4zOzIOpr0yifvyaUD5/SKpQiyp5T0r+P175Ppt7bAkrqPRRMuq9IsuMxoMzSGJ9pAcV5UAAAAAAwBETUhnj77bfTUGoyi6K+lkb5nnzyyWsR48NHQRMjSse7rkKV9NHkv699Lx9QNrpnK1E6lq1CySyavDbKx3lQAAAAADAURNQG6DvGZ2ZR1NcsoKTiwkLGx04MKKmA6rIKVTLGk/+++n76WtFkjymcdKtVKD1P97OAklk4eRVQnAcFAAAAAENCRG2Ac+fOpZHUZhZFfSyN8um9LVh87ChoYkTp6yEjKr63HverUBZQurVjpVUomYWTl/OgAAAAAGBoiKiR6XselDnEphJPPfVUGlEWND50soCSFlAWPH3Ve2QBpcf0njoeV6H0tW0moWNZPNmufE1qtY2AAgAAAIChIaJGZNUxPjlERGUBZWN8MXayiNLXXVehSpGl7+Xf07+3tFUoPdef/9S2CtUloi5cuHD4vwQAAAAAwHAQUSOSxVFX142obJTPrgkVQ8eCRvctcnS/6ypU6XF7r6ge02t0369C6b42lZD23FJA6TYLJ5PzoAAAAABgLIiokVh1jM9cN6KyUT6tQlnEeC2iLFykBdQ6ESX9e5r2/Syc9DyFk25tjE9mq1AKKB3PwsnLGB8AAAAAjAURNQLrjPGZWRj1MQaUrgmlMPGBIy1odN9Hjo+o+BqvvTY7bu/ntcd0ayN7thLlN5OQMaCkAqptlI+AAgAAAIAxIaIGZnd3N42ivmZh1NU4yqdrQlnAeBUzpoWL9AFlwVOy6XH/nqZ9PwsnPc/G9/wqlIIqBlSXVSguqAsAAAAAY0NEDcy6Y3xmFkddjaN8iosYONKCRvd95HSNKP/6eNzez2vPl7biZLeKJkWVPbcUUE2rUGwkAQAAAACbgIgakJ2dnTSIVjGLo64+/fTT1wJK7xUjx0LHtHDRcR9QMr7OtNeWHrP39PrvZ6tQiijd95tJZKtQCiip+1lASa0CAgAAAACMDRE1EEON8cl1NpWIo3wKkhg50keQxUsMKHs8078+Htetvadpz5cWUHGcz9Rqkw8oW4VqGuXjPCgAAAAA2BRE1EAMNcYn14koP8p3//33X4sbrw8aHzldI8peW3rMB5G04/YaO6aI0kqU30xCQVUKqNIoH+dBAQAAAMAmIaIG4PLly2kMreo6EWWjfLqfhY7FjA8aGQNKxtea/vXxuG7tPU17vtTXek7XVSgLqNIqFOdBAQAAAMCmIaLWZMgxPnPViPKjfAoQixtvDBqp+zGgdKzp9aXHfBBJO+5fZ4/FgIqrUD6gslUoLqgLAAAAANuAiFqTIcf4zFUjykb5Hn744TR0spjRbQyoVSLKjvsoknbc1HNtFcqP8Um/CuXH+KSOxYjiPCgAAAAA2AZE1BoMPcZnZoHURY3y6ZpQPlhi5JgWLllASf/a7D2y47rvo8g/Zu9px2NANa1CyRhQnAcFAAAAANuCiFqRq1evpgE0hFkgtWmjfAqQGDnSYsYeU7hY3ES7vD57zEeRvb+099UxPV+3TatQMaDiKB/nQQEAAADANiGiVmSMMT75qU99au/xxx/fN4ulkhrl062FSxY5poWLDyevf232Htlx3fdRZMf1frfddtu143qexvn8c/0qVBzjkzpuAcV5UAAAAACwbYioFRhrjE8BpfOhLKK8MZqiGuVTjPioiaFjxxUuuh/jyfSvzV6fPab7Pox0TO/1K7/yK/vaMf8c00KpyyoU50EBAAAAwLYhonoy1hifAkoqiLKIMmM8mbomlA+aGDmmokXHYziZ8fXxPUrHfRTpa72XDyg93z/H9KtQMaCkX4UioAAAAACgBoionpw7dy6NoFW1eDKzcCppAfXJT37ySNBkkWPHFS4xnLz22uw9So/pvkWR7ut9LKDsuXosjvFJC6VsjE9aQHEeFAAAAADUAhHVg6HPg4oB1TeiTAVIFjv+mFS06DaGk6nH7LXZ60uP+SjS1xZQcRUqRpQ2l2gKKBvlI6AAAAAAoCaIqI4MPcaXBVTpfKgm7ZpQ3iyApMIliydTzymFkn8sHrco0mM+oPSeOqbH9LwYUQql0hiftFE+xvgAAAAAoCaIqI4MNcaXxZOp0bwslEoqumLQNIWObmM4ee212etLj+lriyK9hwXUrbfeun9Mj+u47vuI6roKRUABAAAAQG0QUR0YaowvCydvFkpNxjE+i5p4zI77YIrac8zs9dlxiyK9hw8oe197TAHlI8pCKcaTqcDigroAAAAAUCNEVAtDjfFl0eTVc7JQKhk3k2jSQqZJPa8toOJj+tqiSOFkEaXrQukxva++1uM+omwVKosnk/OgAAAAAKBWiKgGdnd3j8XQKmbRFO17PpRCxAdNmzGaoqVQkqXjFlAWT/KWW27Zf67u61ZxZQFlEaVIalqF4oK6AAAAAFAzRFQD647xZbFUss/5UA888MCxoCmpkMmiyWvPy0Kp6TEFkY77VSip99RjN9988/6tjyjZFFCS86AAAAAAoGaIqAI7OztpGHU1C6Ums1jK7DPGZ8Zoiuo5fQNKxxRIPqAsmux9NdYXA+rUqVNpOOm4LrzLeVAAAAAAUDtEVMK6Y3xZJDWp12TBlJltJtGkj6WSpVCSpeMWSxrfU0ApmCym9NhHPvKRYwGl47YKpWiycDI5DwoAAAAApgARlbDqGF8WSF3sej5Udk2oJmMsZep5TQGVPaZjCiILKKkVKR3XeyqoslUohVIMJ/MLX/jC4Z8+AAAAAEDdEFGBy5cvp4HUZhZHXe16PlSMmTZjMGWWQkk2HVc4WUQpoPRetivfhz/84WMBpejK4snkPCgAAAAAmApElGPVMb4sjPqYBVO0zxhfDKUmm0Kp9JiN6/lVKHs/nRel2xhRMosnSUABAAAAwJQgohyrjPFlUdTHLqN8fTaTUMAobCxqmsxebzbFld5fsaRbrUbpveycqGwVSo9n8SQ5DwoAAAAApgYRdUjfMb4siFaxS0T1WYVSzPhQarIUSrJpFUqhZNGkiNJ9O6739QGl43qvLKA4DwoAAAAApggR9UuuXr2ahlLJLIZWte18qD7XhFLUyBhLmdnrzaa4UjDddNNN+99Ht3ovHdPKVLYjn56nCwNnEcUYHwAAAABMESLql/QZ48tCaB2zcDK1SpWFTKZipc8qVPYeXbRVKJ0HpVsb58tWoez7EFAAAAAAMCcWH1Fdx/iyAFrXtlG+rmN8FlBdV6Fk9j6yaRVKwWSrUFp1svfSKpT0AaUxPv1M2SoUF9QFAAAAgCmz6IjqOsaXBdAQNkVU12tCKWIUK9KipovZezWpcNJqk1agbGtzOx9Kx/WcGFA6FgOKjSQAAAAAYOosOqLOnTuXRpM3i5+hbDofygdMScWQBVSfVSj/3Ox9M7UCZdua6759TwVUXIXS++rxbBVK28gDAAAAAEyZxUZUl/OgsvAZ0iye5H333ZeGTNQCSloUtZnFVvbeXoslrUL5rc11P65CaRxQP4+OxYDiPCgAAAAAmAOLjKi2Mb4seIa2NMrX9ZpQPqCyMCpZem72PUxbhdL3svOfdD+uQtkYn4yrUJwHBQAAAABzYZER1TTGlwXPGJYiqstmEgohixWZRVFm03Oz7yP1GsWSVp4UUnYelO7HVSi9jx7TMR9QnAcFAAAAAHNicRHVNMaXxc5YZudDdbkmVAyorqtQ9rrsMZl9L2mxZBtKaOVJt3EVSs+1n0lfW0BxQV0AAAAAmBuLiqjSGF8WOWMbA6rLNaEUOxYqZoyhknpu31E+vSZbhdIxvwrlx/h0zK9CcR4UAAAAAMyNxUSUdoWrJaCyUb62MT7FjoWK2XUVyp6fPSaz7yctlmwFytQxrUzZKpTew76HX4XiPCgAAAAAmCOLiahsjC8LnE0YR/naNpPwkeL1IVTSj/9lj2ffT1osaVMJ3eprG+OTeo6CSbf+/S2gOA8KAAAAAObKIiJqZ2enmoCSPqCkdrLzARO1SPH2XYXqM8qn4xZLGuPzK1DSVqH8GJ+0VSjOgwIAAACAOTP7iIpjfFnUbFofUG3XhPIrSd4YQ5ltq1Ay+562+nTjjTfuR5RpEaV4imN8um+rUJwHBQAAAABzZvYR5cf4sqDZtP58qLYxvlJAdVmFiq/NnlP6nhZLiqjSKpSe69/fVqEIKAAAAACYO7OOqMuXL1cVUNKfD9W0mUQpoGQWRFH//FJ0Zd/XVqFuuOGG4ipUHOPTe3EeFAAAAAAshdlGlI3xZSGzTS2gHn744TRipKLER4p3E6tQJ06cuBZN2SpUfH9FFQEFAAAAAEththGlMb4sYratAqrpmlAKHB8o0RhD0Rg4pejKvrdWoRRQPqK8iiW9Nr4/Y3wAAAAAsCRmGVEa48sCZtva+VClMb4YKNFSEHm7vCb73nquRviuv/76/dsYUHo8jvHZMQIKAAAAAJbE7CJKH+i1YYOdC+XNwmaT6nyops0kYqBEYwxF4ypU6TXZ99YmEgoorUIpovS1jyiN8cX3llxQFwAAAACWxuwi6m/+5m/2Q0XRkoVUmzF8hlSrUKVrQmUB5G1bhcpe33UVShfRVUBdd91111ahfETpvfTa+P7nz58//FMHAAAAAFgOs4oojfGdPn16P6LWCakuxkDq4gMPPJBGzLoBJbu+Lvv+Cigb4zPjjnzxvV944YXDP3UAAAAAgGUxm4jSGJ8CykeUzAJoU/qAeuihh9KAaQsoGUMoWnqP7Lnx+yuWYkTZRXYVUNl7a+WK86AAAAAAYKnMJqJeeumlYwFVQ0iZp06dOhYwipoYKNExV6F0TCN8Cig7F0q3/tpQeo69p+JJW55fvHjx8E8dAAAAAGB5zCKi3nrrrXQVytRKUBY2mzIb4/Nx0qQFUMnsNbJLRCmSbBXKtja3VSip60LpvSyeJOdBAQAAAMDSmXxE+TG+UkTJbYZUjBcZoyezbRUqG7Uz43Oz769VKGkBpZiygFJM+XiSnAcFAAAAADCDiLIxvraIklngjG02xtcUP94YQtHsNXKVVSjFlF+F0oV3fUBJzoMCAAAAAJh4RGk7864BZWahM5YPP/zwsXjpGlBtq1DZa8z42vgzaIXJVqF8RFlAKbBiRBFQAAAAAAAHTDai4hhf14iSWfCMoS5Q6+Ola0BJH0HRtveJz/c/g7Ro8gGlcLIxPukDivOgAAAAAAA+YLIRFQOqT0Rt4vyoT3ziE0fCRTGTBU/m2KtQH/rQh46sRPlVKO3Q51ehOA8KAAAAAOAok4yoOMbXN6LkmCGl9/fh0hY+UR9B0aFWoUwFla1C6VaP+1UoxvgAAAAAAI4yuYi6cuVKGlAyhlKbWQANod9MQiGTxU7JplWotoCS8TU+oBRFiia/EqX7NsangPKjfAQUAAAAAMBxJhVRu7u7aTzJLJK6mEXQOsZrQmWh02SMIG/2fG/bKF8WULYKZRfatVE+LqgLAAAAAJAzqYgqjfHJLJC6OPRYn4+WLitH3jFXoRRKPqLsvh/js1UoNpIAAAAAACgzmYhqGuOTWSB1daiQ8mN8fQNKxggyu76Xf40PKD1m0eTV6pON8UkFlSJKK34AAAAAAJAziYhqGuMzszjq47oh5a8JtUpANa1CZc+Pxtf7iNJKk4VTXIWygJKcBwUAAAAA0M4kIqppjM/MwqivWRx11VahukZP1AeQd6xVKEWTnQcltSLFeVAAAAAAAO1UH1GXL19Oo8mbBdGqZoHUpl0TSgET46aLpVWoPita/nU+ovwqlNfOgzI5DwoAAAAAoBtVR5RGy7JoimYxtKp9x/r0GguWLG666APImz0300eYDyi7sG7Ux5N8/vnnD//EAQAAAACgjaojqssYn4whtK59QsrG+LK46eKYq1AKpLaIuv766zkPCgAAAACgB9VGVJcxPjMLoXXNgilq14TqEzxRH0De7LmZMcIsoEqrUNpYQuFk14riPCgAAAAAgH5UGVFdx/jMLIKGMAsn75133rlWQJVWobLnlvTvYQEls4CSFk/yhz/84eGfOAAAAAAAdKXKiOo6xiez+BnSLJ7kPffc0zt4ohY/3r5R5l9rAaWtyrOAkhZQZ86cOfzTBgAAAACAPlQXUW+99VYaSyWz8BnS7PwoXRNK0ZJFTVfHWoXS/SyepF+F4jwoAAAAAIDVqCqi+o7xySx8hjaGlDaTyKKmjxY/3r6rUFlE6QK6WUBJAgoAAAAAYH2qiqiXXnopDaUms+gZQwsoXRMqC5o+ZqtQfQNK2mstoHQsiydTAcV5UAAAAAAA61FNRPU5D8rMYmdsV4mdqI8nM3tek9kqVOnCupKAAgAAAAAYhioiapUxPplFzph+7GMfS4Omj0OtQtn79FmFYowPAAAAAGB9qoioLJC6mIXOWD744IPHQmYVhwgoaa/vugpFQAEAAAAADMPWI2qVMT4zi52xvP3229OY6WO2CpU9r03/Pgqo0oV1TS6oCwAAAAAwHFuNqFXH+MwsdsbwrrvuSmOmrz6e5KqrUHGU78SJE2k8Sc6DAgAAAAAYlq1F1O7ubhpGXc1iZwyHGuOLq1CrBpS091BANV1YVxfU1Z8zAAAAAAAMx9Yiap0xPpkFzxgOsZmE9AEls+d0Ma5CZfFkch4UAAAAAMDwbCWirly5koZRH7PgGdohrgklx1qFarqwLudBAQAAAACMw8Yjat0xPjOLniF9+OGH04hZRR9QMntOVy2gdJvFk+Q8KAAAAACA8dh4RK07xmdm4TOkQ43xxVWo7Dld9aN8pS3NdR4UAAAAAACMx0Yj6vLly2kQ9TWLniEdajMJ6QNqnTE+aQGl+1lASc6DAgAAAAAYl41G1L333rv30EMPpWHUxyx8hnSIa0LJIVehpEVUaRWKgAIAAAAAGJ+NRZQ2kzh16tTe3XffvXZMZeEzlPrZsoBZxSEDyoKsdGFdzoMCAAAAANgMG4uo8+fP7weURdR99923v/udRueyUGoyi58hHHIzCb8Kte4Yn9T7lFahOA8KAAAAAGBzbCyitFFDjCjz/vvv348pRUwWTdEsgIZwqM0kpAWUzB7vY9sqFGN8AAAAAACbYyMR5Uf57rnnniMBZRFlPvDAA42jfln8DOFQ14SSQ69C6T20CnXixAkCCgAAAABgy2wkos6ePbt31113pRGlePERZWplKoupLICGMIuXVR0yoKTe6+abbz4WUFxQFwAAAABg84weUVopsVE+BZQf5VNAZRGl1ShFlKmYslG/LIDWdcgxPr8KlT3eV1uFigHFRhIAAAAAANth9Ih68803j4zyrRJRpiLqscceS0NoVfW+Wbys6tCrUHqfj3zkI8ciand39/BPGAAAAAAANsnoEWWjfAooP8rXFFCliFJAPfPMM3tPP/303uOPP773qU99Kg2jPo6xCjVUQEm9VwwozoMCAAAAANgeo0aUNpT4+Mc/fm0Vap2I0jifwkkRZSqmnnjiib1HH300DaQ2h7wmlBxyjE8qoOKW5pwHBQAAAACwXUaNqJ/85Cf7o3wWUP76UFlEWUBlEaVVpxhR5qc//em9Z599dj+osljKHPKaUHKMVahbb731SEBxHhQAAAAAwPYZNaK0CuVH+ZoiqimgdC7UI488UowoBdRzzz23r+4/9dRT+8/P4skccoxPDh1Q8oYbbrgWUFxQFwAAAACgDkaLqNIonw+orhGlICpFlFahLKC8iik9nm1Eoe+bRcuq2ipU9tiq3nTTTUdWoTgPCgAAAACgDkaLqAsXLhwZ5WuKKB9QMaIUPU0R5VehMp988sn976tt0i2ismhZxyFXoTTCJ6+//vprAcV5UAAAAAAA9TBaRGWjfFlANUWUwscCKouo0iqUV+c+6XvbKKF+pqE3f1j3/SycTL+lOedBAQAAAADUxSgRpVE+u8CujfN1XYXyEaXNJJoiqm0VSs+xgPLq59Eq2e23355GTR/XCagYT6YFFOdBAQAAAADUxygRpQvs+oiSfSNKK0g+oKR237OA6rIKpddkEWXq59LPefLkyTRy2tQqVN8xviyavDfeeOO1iOI8KAAAAACA+hglonSBXa30xIjyKqKygJLZKlSMqLZVKD2ehZNXP6PGDqViSitTfaKo63OzWCpJQAEAAAAA1M0oEaUg0blHFlA2zhcjqrQSla1C+YgaYhVKWkB59bPfcccdrWN6bQGVBVKbdmFdzoMCAAAAAKiXwSMqng8lFSyliDJ9RGWrUNIiqm0VSsZgiirysogy77zzzv0xv1JMZRGVhVFXb775ZgIKAAAAAGACDB5RpfOhoj6gvKVRPouoLqtQ2oAiCyevH+XL1GqUxvukxVRp9SmLor6eOHGCMT4AAAAAgAkweER1OR+qKaJsNcqu6xQjqssqlF6fhZOpnykLJ9POj4oqpmwTiiyEVtVWoQgoAAAAAID6GTyi+pwPlWkRZWpl6vTp0/sR9dRTT6XR5NXFdbNw8ratQmmUL4soqRWpW265Zd8siFZRq1BcUBcAAAAAYBoMGlFdz4fK4smMEWUqphRSbeN8em6MpmgWTl4/yhcDSqtQFlFDxJQurMt5UAAAAAAA02HQiLp06dJa50PFcIoqpGxl6umnnz4WUF1WobpsKFEKKKnwiRElb7rppv0g0mheDKUmdUHd3d3dwz9BAAAAAAConUEj6vz580fOh1p3lC9qEeVjSudJWURpa/QsnLyrjPJZQMksoBRO2p78hhtu2Ff3FVVZNHkVXZwHBQAAAAAwLQaNqKHPh/LGgPIqph599NE0mrz6mbJw8jYFlHbnywJKwWQB5b3++uv3brzxxv3nZRHFeVAAAAAAANNjsIha93yoLJy8WTx59d72fRVvMaBk31UoH1BS4RMjysb4soDSjntS97U65Uf9OA8KAAAAAGCajBpRMaCGHOWL+u9rxpjKwsnrIyoGlMwCSmq1yQeUdtu77rrrrkWUV0H1/PPPH/6pAQAAAADA1BgsonSRXYWID5ihIiqLJq/e18dTVD9L24YSsimg4iifBZTsGlDme++9d/inBgAAAAAAU2OwiNKmEgoRxYrMIiqLJ5mFkzcLJ6++VxZPXq2SyRhOpq1CZQEl/SifD6g4yqeAaooo7cYHAAAAAADTZbCIOnv27P45Rz6ibIxunYjKosmr12fR5NXPYxFViildGyqLJzMLKOlH+TSq1xZRrEIBAAAAAEybwSJKKzkWUNKfi2QhFePJzOLJzMLJq/fNwsmrSIoR5dXjWTiZNsoXA0ra1uY2xscqFAAAAADAvBkkonSx2C4RpXOXzC4BJbNw8mbR5NXPkoWT9+TJk/uhlAWU1CifbWXutVE+H1CsQgEAAAAAzJtBIko78/mIUrzEiPIB5W0KqSyavHp9jKZo2yqUVEB5Y0SVVqFslM+P8ZUiilUoAAAAAIB5MFhEKUZWiSgzi6ksnLxtG0r0WYUqedttt6UBJTXK1yWgJKtQAAAAAADzYJCIsu3NLaL8phIyjvI16WMqCydTz83CybvKKlRUsaSxvRhQMo7xlSKKVSgAAAAAgPlQXUSZthFFFlCyy4YSWTR521ahdC6UAsprAaVRvhhQpYhiFQoAAAAAYD4MElFxe3MfUKtGlH9tFlNZNHn182Th5M3CyatYihFlxjG+UkCxCgUAAAAAMC8Giai2nfmySGpS4RTfw0JMY366zcLJm0WTt20VSptJZPEkdS6UD6WmiGIVCgAAAABgXgweUQqYGEA+kLqYRZQ3BlNUP0cWTt4snLxZPJlZLJUEAAAAAIB5sXZEvf/++40Rtc4oX6bOt7LvZd8v2rahRNsqlK4JlcWT1GYSWSxlsgoFAAAAADA/1o6ouL35uptKdFmF8hHltcdiNEWzcDK1pXkWT1KbSWSxlPnDH/7w8E8IAAAAAADmxNoRdenSpf0wsZAZO6Ls+5SMwRS9/fbb03gym1ahtJlEFkyZWqEDAAAAAID5MUhEaZzPdueL0ZOFUpPx9d44yhfVz6CfxRsjKgsnc6hVqDfeeOPwTwcAAAAAAObGYBGl85CkRur8alQWSiWHWIWKEWXqsXVWoUq770XZ0hwAAAAAYN6MElGmwieLpZJNEbXKKlRUK01ZPMmmVai4pXmTjPEBAAAAAMybtSPqzTff3A+ULKJsRarreVExnLx6vyyezKZVKPnRj350P5TMGFFNq1BZLGWymQQAAAAAwPwZNKK0GpRFlLcpqOJzvVk4mW2rUHfccceRgIreeuutaTzJPlua7+7uHv6pAAAAAADAXNl4RJkxptYZ5dP3juHkjatQUcWSNo6IAdVnMwnG+AAAAAAAlsHWIspUPDUFlNR7ZfFkxmjytq1C3XTTTfux5LWI6rqlOWN8AAAAAADLYdSIyoKoZFN0ZeFkrrMKpTG+GFDmDTfckAZTJmN8AAAAAADLYZCI0qYOihlFzSoRpXjyr/Mxpa9jOHmzcDK1pXkWT2a2CiX77MZ38eLFwz8JAAAAAABYAlVGlKnjMZq866xC3XLLLWlAScb4AAAAAACgxNoRdf78+TSiSqN5mT6cvBZKUqOCPqBkFk5m0ypU0xhfn9342EwCAAAAAGB5bD2iSqtQUuFkERVjSrdZPJl2Ad3MIcb43nvvvcM/AQAAAAAAWBJVR1QMKK923ZNZQJ08eTKNJ9m0CsUYHwAAAAAAtDFoRPkAWjeiFGQxnEyFksb1zBhTWTyZdv2naNcxPgIKAAAAAGDZbD2i/Gu82SifqWjyEeVjqmkziXXH+M6cOXP4Tw0AAAAAAEtlsIiSfpwvC6boEKtQXo3xaVxPxoBqGuO77rrr0miKspEEAAAAAACsHVF2sV1FlFaPbOOHLJqipYhaZRVKWix5LaJKq1Bdz4MioAAAAAAAQKwdUZcuXToWUVIx1DbSF+PJzOJJNq1CaYwvBpS57hgf50EBAAAAAIAxakSZpZjyzzGbRvn6rkJJXVRXseS1iMqCKUpAAQAAAACAZ+2I0phbW0R5Laj6jvI1rULpmlBZQEntxhcjSnY5D4qNJAAAAAAAIDJIRGmFqGtEtZkFlCytQvnNJKKlgOI8KAAAAAAAWJW1I2p3d3eliLLn+R39SqN8eu8soGSfMT55ww03pMEUJaAAAAAAACBj6xHlzQJKllahSptJrBtQFy9ePPynAwAAAAAAOMraESUUNH0iSitO/rmm3kP6gFplFSob4+saUG+88cbhPxUAAAAAAMBxBomos2fPXosfxZAf0cvMIsqCKVpahSptJqHtzGNAyS4bSRBQAAAAAADQxiARdf78+f3g6RpRMaBkjCepHfm0cYRpAVXaTKI0xkdAAQAAAADAUFQdURZM0T5jfCdOnEijyUtAAQAAAABAVwaJqDfffHM/erpEVNdRvrgKZWqMTytOsi2gupwHRUABAAAAAEAfBomoS5curRVRMaBktgql3fgsoLw333wzAQUAAAAAABthsIjSytEqEdVnFUorTllAKZikD6i286AIKAAAAAAAWIVBIkoXptXKkYVUU0T5gCpFVLYK5cf4fEBZNHkJKAAAAAAAGItBIkoX3FXoKKIUQU0rUjGiYkBlq1ClMb4bb7yRgAIAAAAAgI0ySEQJ7dCnazpZDCmkYkx1GeXLVqGyMb5VAurixYuHPy0AAAAAAMBqDBZR2qGvFFElY0Rlq1DZGJ924usbUBo5BAAAAAAAWJfBIkqbSyii/EhfjCiLJTtuX5txFSob4/MbSXQJqDNnzhBQAAAAAAAwGINFlN9cwkKpFFFSz/PRla1CxTG+vgH1wx/+8PCnAwAAAAAAGIbBIirbXMJHlO5nEWXGgMrG+OJ5UE0BxflPAAAAAAAwBoNFlNDmEl0jKgaUoklqhC8b4+sTUIzvAQAAAADAWAwaUX5ziRhRPqBiRFlAmRrbu+mmm/ZvFVBxI4lSQHH+EwAAAAAAjM2gEWWbS7RFlB/l06qTD6jbbrttP6BMrUCdOHGiNaA4/wkAAAAAADbBoBFlm0vEiNJtFlF6rg8oaatQ8sMf/vB+QJmlgOICugAAAAAAsCkGjShtLtElokqrUBrd6xtQ77333uF3BwAAAAAAGJ9BI0rY5hI+onxAWUT5zSSkH+PT2J7F0/XXX58GlM5/UrQBAAAAAABsksEjSptLNEWUjfL5gJI2xtcWUIonti8HAAAAAIBtMXhE6bwojekpmCykYkTFMT5dVNcHlOIpCyg2jwAAAAAAgG0zeEQJjfTZeU/SR1TcTMLG+JoCiq3LAQAAAACgFkaJKAWPVpe04iR1/pPiSatQPqCkxvgUUBZP0q8+MboHAAAAAAA1MUpEacMHxY9227OQUjDpa0WTAktf67YUUKw+AQAAAABAjYwSUYZCStGkkT0FlN/CXJbG91h9AgAAAACAWhk1ooSCSIGkFSeLJ10DyseTBZQ2jmDbcgAAAAAAqJnRI0rYeJ9G9BRLFk7StixndA8AAAAAAKbARiLKUEx5CScAAAAAAJgaG40oAAAAAACAqUNEAQAAAAAA9ICIAgAAAAAA6AERBQAAAAAA0AMiCgAAAAAAoAdEFAAAAAAAQA+IKAAAAAAAgB4QUQAAAAAAAD0gogAAAAAAAHpARAEAAAAAAPSAiAIAAAAAAOgBEQUAAAAAANADIgoAAAAAAKAHRBQAAAAAAEAPiCgAAAAAAIAeEFEAAAAAAAA9IKIAAAAAAAB6QEQBAAAAAAD0gIgCAAAAAADoAREFAAAAAADQAyIKAAAAAACgB0QUAAAAAABAD4goAAAAAACAHhBRAAAAAAAAPSCiAAAAAAAAekBEAQAAAAAA9ICIAgAAAAAA6AERBQAAAAAA0AMiCgAAAAAAoAdEFAAAAAAAQA+IKAAAAAAAgM7s7f1/jM4ck4WUFscAAAAASUVORK5CYII=;" parent="1" vertex="1">
          <mxGeometry x="160" y="240" width="529" height="363.88" as="geometry" />
        </mxCell>
        <mxCell id="jjB0FghLF4md372GnH0h-10" value="" style="ellipse;whiteSpace=wrap;html=1;aspect=fixed;strokeColor=none;fillColor=#0000FF;" parent="1" vertex="1">
          <mxGeometry x="662" y="338" width="13" height="13" as="geometry" />
        </mxCell>
        <mxCell id="jjB0FghLF4md372GnH0h-11" value="" style="ellipse;whiteSpace=wrap;html=1;aspect=fixed;strokeColor=none;fillColor=#0000FF;" parent="1" vertex="1">
          <mxGeometry x="533" y="338" width="13" height="13" as="geometry" />
        </mxCell>
        <mxCell id="jjB0FghLF4md372GnH0h-12" value="" style="ellipse;whiteSpace=wrap;html=1;aspect=fixed;strokeColor=none;fillColor=#0000FF;" parent="1" vertex="1">
          <mxGeometry x="368" y="374" width="13" height="13" as="geometry" />
        </mxCell>
        <mxCell id="jjB0FghLF4md372GnH0h-13" value="" style="ellipse;whiteSpace=wrap;html=1;aspect=fixed;strokeColor=none;fillColor=#0000FF;" parent="1" vertex="1">
          <mxGeometry x="169" y="577" width="13" height="13" as="geometry" />
        </mxCell>
        <mxCell id="jjB0FghLF4md372GnH0h-14" value="" style="endArrow=none;html=1;rounded=0;strokeWidth=3;strokeColor=#0000FF;exitX=0;exitY=0.5;exitDx=0;exitDy=0;entryX=1;entryY=0.5;entryDx=0;entryDy=0;" parent="1" source="jjB0FghLF4md372GnH0h-11" target="jjB0FghLF4md372GnH0h-10" edge="1">
          <mxGeometry width="50" height="50" relative="1" as="geometry">
            <mxPoint x="383" y="473" as="sourcePoint" />
            <mxPoint x="433" y="423" as="targetPoint" />
          </mxGeometry>
        </mxCell>
        <mxCell id="jjB0FghLF4md372GnH0h-15" value="" style="endArrow=none;html=1;rounded=0;strokeWidth=3;strokeColor=#0000FF;entryX=0.136;entryY=0.587;entryDx=0;entryDy=0;entryPerimeter=0;" parent="1" target="jjB0FghLF4md372GnH0h-12" edge="1">
          <mxGeometry width="50" height="50" relative="1" as="geometry">
            <mxPoint x="544" y="344" as="sourcePoint" />
            <mxPoint x="663" y="346" as="targetPoint" />
          </mxGeometry>
        </mxCell>
        <mxCell id="jjB0FghLF4md372GnH0h-16" value="" style="endArrow=none;html=1;rounded=0;strokeWidth=3;strokeColor=#0000FF;" parent="1" edge="1">
          <mxGeometry width="50" height="50" relative="1" as="geometry">
            <mxPoint x="374" y="381" as="sourcePoint" />
            <mxPoint x="177" y="584" as="targetPoint" />
          </mxGeometry>
        </mxCell>
        <mxCell id="jjB0FghLF4md372GnH0h-18" value="&lt;br&gt;" style="endArrow=baseDash;html=1;rounded=0;strokeWidth=3;strokeColor=#FF0000;entryX=0.5;entryY=1;entryDx=0;entryDy=0;startArrow=baseDash;startFill=0;endFill=0;dashed=1;dashPattern=1 2;exitX=0.5;exitY=1;exitDx=0;exitDy=0;labelBackgroundColor=none;fontColor=#FF3333;" parent="1" edge="1">
          <mxGeometry x="-0.2093" y="-10" width="50" height="50" relative="1" as="geometry">
            <mxPoint x="670" y="329" as="sourcePoint" />
            <mxPoint x="541" y="329" as="targetPoint" />
            <mxPoint as="offset" />
          </mxGeometry>
        </mxCell>
        <mxCell id="jjB0FghLF4md372GnH0h-20" value="&lt;br&gt;" style="endArrow=baseDash;html=1;rounded=0;strokeWidth=3;strokeColor=#FF0000;startArrow=baseDash;startFill=0;endFill=0;dashed=1;dashPattern=1 2;labelBackgroundColor=none;fontColor=#FF3333;" parent="1" edge="1">
          <mxGeometry x="0.0293" y="-10" width="50" height="50" relative="1" as="geometry">
            <mxPoint x="535" y="330" as="sourcePoint" />
            <mxPoint x="370" y="366" as="targetPoint" />
            <mxPoint as="offset" />
          </mxGeometry>
        </mxCell>
        <mxCell id="jjB0FghLF4md372GnH0h-21" value="&lt;br style=&quot;font-size: 13px;&quot;&gt;" style="endArrow=baseDash;html=1;rounded=0;strokeWidth=3;strokeColor=#FF0000;startArrow=baseDash;startFill=0;endFill=0;dashed=1;dashPattern=1 2;labelBackgroundColor=none;fontColor=#FF3333;fontSize=13;" parent="1" edge="1">
          <mxGeometry x="0.0293" y="-10" width="50" height="50" relative="1" as="geometry">
            <mxPoint x="364.1" y="369" as="sourcePoint" />
            <mxPoint x="165" y="572" as="targetPoint" />
            <mxPoint as="offset" />
          </mxGeometry>
        </mxCell>
        <mxCell id="jjB0FghLF4md372GnH0h-22" value="0.13086 m" style="text;html=1;align=center;verticalAlign=middle;resizable=0;points=[];autosize=1;strokeColor=none;fillColor=none;fontColor=#FF0000;fontSize=18;rotation=-45;" parent="1" vertex="1">
          <mxGeometry x="212" y="433" width="104" height="35" as="geometry" />
        </mxCell>
        <mxCell id="jjB0FghLF4md372GnH0h-23" value="0.06185 m" style="text;html=1;align=center;verticalAlign=middle;resizable=0;points=[];autosize=1;strokeColor=none;fillColor=none;fontColor=#FF0000;fontSize=18;rotation=-13;" parent="1" vertex="1">
          <mxGeometry x="398" y="321" width="104" height="35" as="geometry" />
        </mxCell>
        <mxCell id="jjB0FghLF4md372GnH0h-24" value="0.05 m" style="text;html=1;align=center;verticalAlign=middle;resizable=0;points=[];autosize=1;strokeColor=none;fillColor=none;fontColor=#FF0000;fontSize=18;rotation=0;" parent="1" vertex="1">
          <mxGeometry x="557" y="299" width="74" height="35" as="geometry" />
        </mxCell>
        <mxCell id="IimpDS0Ga3Su3iXpp-pW-1" value="Coxa" style="text;html=1;align=center;verticalAlign=middle;resizable=0;points=[];autosize=1;strokeColor=none;fillColor=none;fontColor=#000000;fontSize=20;fontStyle=1" parent="1" vertex="1">
          <mxGeometry x="552" y="237" width="68" height="37" as="geometry" />
        </mxCell>
        <mxCell id="IimpDS0Ga3Su3iXpp-pW-2" value="Femur" style="text;html=1;align=center;verticalAlign=middle;resizable=0;points=[];autosize=1;strokeColor=none;fillColor=none;fontColor=#000000;fontSize=20;fontStyle=1" parent="1" vertex="1">
          <mxGeometry x="387" y="249" width="80" height="37" as="geometry" />
        </mxCell>
        <mxCell id="IimpDS0Ga3Su3iXpp-pW-3" value="Tibia" style="text;html=1;align=center;verticalAlign=middle;resizable=0;points=[];autosize=1;strokeColor=none;fillColor=none;fontColor=#000000;fontSize=20;fontStyle=1" parent="1" vertex="1">
          <mxGeometry x="166" y="361" width="65" height="37" as="geometry" />
        </mxCell>
        <mxCell id="IimpDS0Ga3Su3iXpp-pW-4" value="" style="endArrow=none;html=1;rounded=0;strokeColor=#000000;strokeWidth=2;entryX=-0.033;entryY=0.295;entryDx=0;entryDy=0;entryPerimeter=0;" parent="1" edge="1">
          <mxGeometry width="50" height="50" relative="1" as="geometry">
            <mxPoint x="586.75" y="267" as="sourcePoint" />
            <mxPoint x="582.001" y="303.66999999999996" as="targetPoint" />
          </mxGeometry>
        </mxCell>
        <mxCell id="IimpDS0Ga3Su3iXpp-pW-5" value="" style="endArrow=none;html=1;rounded=0;strokeColor=#000000;strokeWidth=2;" parent="1" edge="1">
          <mxGeometry width="50" height="50" relative="1" as="geometry">
            <mxPoint x="432" y="279" as="sourcePoint" />
            <mxPoint x="453" y="322" as="targetPoint" />
          </mxGeometry>
        </mxCell>
        <mxCell id="IimpDS0Ga3Su3iXpp-pW-6" value="" style="endArrow=none;html=1;rounded=0;strokeColor=#000000;strokeWidth=2;" parent="1" edge="1">
          <mxGeometry width="50" height="50" relative="1" as="geometry">
            <mxPoint x="218" y="393" as="sourcePoint" />
            <mxPoint x="251" y="433" as="targetPoint" />
          </mxGeometry>
        </mxCell>
      </root>
    </mxGraphModel>
  </diagram>
</mxfile>
